# File created by Blade
# Date/Time:  Fri Jan 16 14:33:51 2015
#---------------------------------------------------------
:version 1.10
:name HOM
:units
  mass 1.0
  length 1.000000
  angle deg
:documentation
     Acclaim Skeleton File
:root
   axis xyz
   order TX TY TZ RX RY RZ
   position 0.000000 0.000000 0.000000
   orientation 0 0 0
:bonedata
   begin
      id 1
      name Spine_dum
      direction 0.000000 1.000000 0.000000
      length 7.067664
      axis 0.0 0.0 0.0 xyz
   end
   begin
      id 2
      name LeftUpLeg_dum
      direction 1.000000 0.000000 0.000000
      length 4.013002
      axis 0.0 0.0 0.0 xyz
   end
   begin
      id 3
      name RightUpLeg_dum
      direction -1.000000 0.000000 0.000000
      length 4.013002
      axis 0.0 0.0 0.0 xyz
   end
   begin
      id 4
      name Spine
      direction 0.000000 1.000000 0.000000
      length 0.000000
      axis 0.0 0.0 0.0 xyz
      dof rx ry rz
   end
   begin
      id 5
      name Spine_dum1
      direction 0.000000 1.000000 0.000000
      length 15.039886
      axis 0.0 0.0 0.0 xyz
   end
   begin
      id 6
      name Spine_dum2
      direction 0.000000 1.000000 0.000000
      length 10.530368
      axis 0.0 0.0 0.0 xyz
   end
   begin
      id 7
      name Spine_dum3
      direction 0.000000 1.000000 0.000000
      length 10.530368
      axis 0.0 0.0 0.0 xyz
   end
   begin
      id 8
      name Head
      direction 0.000000 1.000000 0.000000
      length 4.527550
      axis 0.0 0.0 0.0 xyz
      dof rx ry rz
   end
   begin
      id 9
      name LeftShoulder
      direction 1.000000 0.000000 0.000000
      length 7.028855
      axis 0.0 0.0 -90.0 xyz
      dof rx ry rz
   end
   begin
      id 10
      name LeftArm
      direction 1.000000 0.000000 0.000000
      length 10.797705
      axis 0.0 0.0 -90.0 xyz
      dof rx ry rz
   end
   begin
      id 11
      name LeftForeArm
      direction 1.000000 0.000000 0.000000
      length 7.907442
      axis 0.0 0.0 -90.0 xyz
      dof ry rz rx
   end
   begin
      id 12
      name LeftHand
      direction 0.000000 0.000000 0.000000
      length 0.000000
      axis 0.0 0.0 -90.0 xyz
      dof rx ry rz
   end
   begin
      id 13
      name LeftHand_dum1
      direction 0.000000 0.000000 0.000000
      length 0.000000
      axis 0.0 0.0 -90.0 xyz
   end
   begin
      id 14
      name LeftHand_dum2
      direction 1.000000 0.000000 0.000000
      length 3.937000
      axis 0.0 0.0 -90.0 xyz
   end
   begin
      id 15
      name LeftHandThumb1
      direction 0.000000 0.000000 1.000000
      length 3.937000
      axis 0.0 0.0 -90.0 xyz
      dof rx rz ry
   end
   begin
      id 16
      name RightShoulder
      direction -1.000000 0.000000 0.000000
      length 7.028855
      axis 0.0 0.0 90.0 xyz
      dof rx ry rz
   end
   begin
      id 17
      name RightArm
      direction -1.000000 0.000000 0.000000
      length 10.797705
      axis 0.0 0.0 90.0 xyz
      dof rx ry rz
   end
   begin
      id 18
      name RightForeArm
      direction -1.000000 0.000000 0.000000
      length 7.907442
      axis 0.0 0.0 90.0 xyz
      dof ry rz rx
   end
   begin
      id 19
      name RightHand
      direction 0.000000 0.000000 0.000000
      length 0.000000
      axis 0.0 0.0 90.0 xyz
      dof rx ry rz
   end
   begin
      id 20
      name RightHand_dum1
      direction 0.000000 0.000000 0.000000
      length 0.000000
      axis 0.0 0.0 90.0 xyz
   end
   begin
      id 21
      name RightHand_dum2
      direction -1.000000 0.000000 0.000000
      length 3.937000
      axis 0.0 0.0 90.0 xyz
   end
   begin
      id 22
      name RightHandThumb1
      direction 0.000000 0.000000 1.000000
      length 3.937000
      axis 0.0 0.0 90.0 xyz
      dof rx rz ry
   end
   begin
      id 23
      name LeftUpLeg
      direction 0.000000 -1.000000 0.000000
      length 16.899758
      axis 0.0 0.0 0.0 xyz
      dof rx ry rz
   end
   begin
      id 24
      name LeftLeg
      direction 0.000000 -1.000000 0.000000
      length 17.389183
      axis 0.0 0.0 0.0 xyz
      dof rx ry rz
   end
   begin
      id 25
      name LeftFoot
      direction 0.000000 -0.258819 0.965926
      length 4.924528
      axis 15.0 0.0 0.0 xyz
      dof rx ry rz
   end
   begin
      id 26
      name LeftToeBase
      direction 0.000000 0.000000 1.000000
      length 2.952750
      axis 0.0 0.0 0.0 xyz
      dof rx ry rz
   end
   begin
      id 27
      name RightUpLeg
      direction 0.000000 -1.000000 0.000000
      length 16.899758
      axis 0.0 0.0 0.0 xyz
      dof rx ry rz
   end
   begin
      id 28
      name RightLeg
      direction 0.000000 -1.000000 0.000000
      length 17.389183
      axis 0.0 0.0 0.0 xyz
      dof rx ry rz
   end
   begin
      id 29
      name RightFoot
      direction 0.000000 -0.258819 0.965926
      length 4.924528
      axis 15.0 0.0 0.0 xyz
      dof rx ry rz
   end
   begin
      id 30
      name RightToeBase
      direction 0.000000 0.000000 1.000000
      length 2.952750
      axis 0.0 0.0 0.0 xyz
      dof rx ry rz
   end
:hierarchy
   begin
      root Spine_dum LeftUpLeg_dum RightUpLeg_dum
      Spine_dum Spine
      LeftUpLeg_dum LeftUpLeg
      RightUpLeg_dum RightUpLeg
      Spine Spine_dum1 Spine_dum2 Spine_dum3
      Spine_dum1 Head
      Spine_dum2 LeftShoulder
      Spine_dum3 RightShoulder
      LeftShoulder LeftArm
      LeftArm LeftForeArm
      LeftForeArm LeftHand
      LeftHand LeftHand_dum1 LeftHand_dum2
      LeftHand_dum1 LeftHandThumb1
      RightShoulder RightArm
      RightArm RightForeArm
      RightForeArm RightHand
      RightHand RightHand_dum1 RightHand_dum2
      RightHand_dum1 RightHandThumb1
      LeftUpLeg LeftLeg
      LeftLeg LeftFoot
      LeftFoot LeftToeBase
      RightUpLeg RightLeg
      RightLeg RightFoot
      RightFoot RightToeBase
   end

# File created by Blade
# Date/Time:  Fri Jan 16 14:33:41 2015
# Frame Rate: 120.000 fps
#------------------------------------------------------
:FULLY-SPECIFIED
:DEGREES
376
root 18.748072 35.601925 -24.892854 -171.183024 -2.301629 -179.026412
Spine -17.469232 -0.230712 -0.031088
Head 6.602230 -2.283002 1.278334
LeftShoulder -13.474537 -17.689793 6.385079
LeftArm 0.334457 -1.033227 -32.624684
LeftForeArm -1.972208 -0.000000 9.374841
LeftHand -3.058231 -0.000000 10.334674
LeftHandThumb1 -26.253704 0.000000 33.147579
RightShoulder -13.452435 -12.683419 -0.498932
RightArm 11.852835 39.534366 40.113667
RightForeArm -33.672779 -0.000000 13.683087
RightHand -9.503617 -0.000000 -6.955688
RightHandThumb1 -24.326973 -0.000000 -32.862282
LeftUpLeg 0.850834 8.353434 0.061972
LeftLeg -6.276219 -0.000000 0.000000
LeftFoot -21.035398 26.537242 -14.624616
LeftToeBase 24.515329 -0.000000 -0.000000
RightUpLeg -0.059928 -9.942695 2.474929
RightLeg -4.392446 -0.000000 0.000000
RightFoot -21.248374 -26.316135 15.940320
RightToeBase 22.567887 -0.000000 -0.000000
377
root 18.748552 35.601680 -24.882416 -171.193945 -2.318401 -179.024978
Spine -17.422914 -0.223637 -0.063006
Head 6.600045 -2.354723 1.272223
LeftShoulder -13.445725 -17.569295 6.013256
LeftArm -0.030194 -0.952536 -33.471326
LeftForeArm -2.145800 -0.000000 9.294487
LeftHand -3.002951 -0.000000 9.686344
LeftHandThumb1 -26.253704 0.000000 33.147579
RightShoulder -13.500405 -12.810316 -0.219639
RightArm 11.993561 39.256734 41.133959
RightForeArm -33.384796 -0.000000 13.471287
RightHand -9.466385 -0.000000 -7.058055
RightHandThumb1 -24.326973 -0.000000 -32.862282
LeftUpLeg 0.840690 8.320431 0.066453
LeftLeg -6.271437 -0.000000 0.000000
LeftFoot -21.031699 26.560358 -14.588315
LeftToeBase 24.559011 -0.000000 -0.000000
RightUpLeg -0.060415 -9.952614 2.480227
RightLeg -4.401643 -0.000000 0.000000
RightFoot -21.262716 -26.329710 15.970537
RightToeBase 22.556633 -0.000000 -0.000000
378
root 18.748328 35.601696 -24.873227 -171.201071 -2.337641 -179.019492
Spine -17.389879 -0.213640 -0.076520
Head 6.603486 -2.438329 1.246446
LeftShoulder -13.389248 -17.436812 5.617427
LeftArm -0.401948 -0.972810 -34.303945
LeftForeArm -2.212194 -0.000000 9.167035
LeftHand -2.873196 -0.000000 8.824277
LeftHandThumb1 -26.253704 0.000000 33.147579
RightShoulder -13.531122 -12.881443 0.019339
RightArm 12.044024 39.094016 42.161778
RightForeArm -33.363743 -0.000000 13.355367
RightHand -9.432666 -0.000000 -6.781608
RightHandThumb1 -24.326973 -0.000000 -32.862282
LeftUpLeg 0.833619 8.286862 0.073802
LeftLeg -6.274215 -0.000000 0.000000
LeftFoot -21.004099 26.577184 -14.551375
LeftToeBase 24.488431 -0.000000 -0.000000
RightUpLeg -0.066479 -9.986109 2.487991
RightLeg -4.403109 -0.000000 0.000000
RightFoot -21.214514 -26.318671 15.921948
RightToeBase 22.590890 -0.000000 -0.000000
379
root 18.746400 35.602096 -24.867908 -171.250942 -2.319581 -179.027838
Spine -17.313308 -0.162192 -0.115102
Head 6.601928 -2.541083 1.228044
LeftShoulder -13.333304 -17.307830 5.198714
LeftArm -0.711334 -1.005435 -35.099693
LeftForeArm -2.168959 0.000000 8.908778
LeftHand -2.726811 -0.000000 8.064423
LeftHandThumb1 -26.253704 0.000000 33.147579
RightShoulder -13.537762 -12.899065 0.276033
RightArm 12.002643 38.939970 43.097210
RightForeArm -33.281996 -0.000000 13.152369
RightHand -9.363972 0.000000 -6.391896
RightHandThumb1 -24.326973 -0.000000 -32.862282
LeftUpLeg 0.885569 8.305899 0.065283
LeftLeg -6.291471 -0.000000 0.000000
LeftFoot -21.003548 26.573299 -14.570806
LeftToeBase 24.519253 -0.000000 -0.000000
RightUpLeg -0.021697 -9.977354 2.467081
RightLeg -4.409997 -0.000000 0.000000
RightFoot -21.224984 -26.324945 15.926780
RightToeBase 22.595843 -0.000000 -0.000000
